<svg width="480" height="480" viewBox="0 0 480 480" fill="none" xmlns="http://www.w3.org/2000/svg">
<path fill-rule="evenodd" clip-rule="evenodd" d="M121.959 358.041H99.9424C67.9007 358.041 41.9258 332.067 41.9258 300.025V99.9415C41.9258 67.8998 67.9007 41.9248 99.9424 41.9248H300.026C332.068 41.9248 358.042 67.8998 358.042 99.9415V121.958H380.076C412.108 121.958 438.076 147.926 438.076 179.958V380.075C438.076 412.108 412.108 438.075 380.076 438.075H179.959C147.927 438.075 121.959 412.108 121.959 380.075V358.041ZM77.9258 99.9415C77.9258 87.782 87.783 77.9248 99.9424 77.9248H300.026C312.185 77.9248 322.042 87.782 322.042 99.9415V121.958H179.959C147.926 121.958 121.959 147.926 121.959 179.959V322.041H99.9424C87.783 322.041 77.9258 312.184 77.9258 300.025V99.9415ZM157.959 340.111C157.959 340.088 157.959 340.065 157.959 340.041C157.959 340.018 157.959 339.995 157.959 339.972V179.959C157.959 167.808 167.809 157.958 179.959 157.958H380.076C392.226 157.958 402.076 167.808 402.076 179.958V380.075C402.076 392.225 392.226 402.075 380.076 402.075H179.959C167.809 402.075 157.959 392.225 157.959 380.075V340.111Z" fill="#111111"/>
</svg>
