<svg width="480" height="480" viewBox="0 0 480 480" fill="none" xmlns="http://www.w3.org/2000/svg">
<path d="M217 165.065C216.943 152.267 227.326 142 239.98 142C252.654 142 263 152.252 263 165C263 177.701 252.701 188 240 188C227.321 188 217.035 177.736 217 165.065Z" fill="#111111"/>
<path d="M258 240C258 230.059 249.941 222 240 222C230.059 222 222 230.059 222 240V340C222 349.941 230.059 358 240 358C249.941 358 258 349.941 258 340V240Z" fill="#111111"/>
<path fill-rule="evenodd" clip-rule="evenodd" d="M240 42C130.639 42 42 130.639 42 240C42 349.361 130.639 438 240 438C349.361 438 438 349.361 438 240C438 130.639 349.361 42 240 42ZM240 78C150.521 78 78 150.521 78 240C78 329.479 150.521 402 240 402C329.479 402 402 329.479 402 240C402 150.521 329.479 78 240 78Z" fill="#111111"/>
</svg>
