<svg width="380" height="380" viewBox="0 0 380 380" fill="none" xmlns="http://www.w3.org/2000/svg">
<path d="M223.678 370.23C224.353 373.841 221.974 377.326 218.342 377.874C181.422 383.444 143.624 378.018 109.696 362.195C73.756 345.435 43.9613 317.849 24.4875 283.304C5.01358 248.759 -3.16339 208.986 1.10257 169.561C5.36853 130.135 21.8636 93.0323 48.276 63.4524C74.6883 33.8725 109.694 13.2982 148.387 4.61293C187.08 -4.0723 227.521 -0.433085 264.042 15.0205C300.563 30.4741 331.333 56.9676 352.04 90.7877C371.588 122.715 381.243 159.66 379.872 196.973C379.737 200.643 376.542 203.4 372.879 203.137C369.216 202.874 366.472 199.69 366.597 196.02C367.775 161.477 358.795 127.292 340.697 97.7325C321.439 66.2798 292.823 41.6409 258.859 27.2691C224.895 12.8972 187.285 9.51277 151.3 17.59C115.315 25.6673 82.7601 44.8014 58.1966 72.3107C33.6332 99.82 18.2927 134.326 14.3254 170.992C10.358 207.657 17.9626 244.646 36.0733 276.773C54.184 308.899 81.8931 334.554 115.317 350.142C146.729 364.791 181.709 369.858 215.898 364.792C219.531 364.254 223.004 366.62 223.678 370.23Z" fill="#111111"/>
</svg>
