<svg width="16" height="16" viewBox="0 0 16 16" fill="none" xmlns="http://www.w3.org/2000/svg">
<path d="M9.05282 13.6342C9.11385 13.9608 8.89848 14.2781 8.56753 14.3079C7.45847 14.4077 6.3388 14.2135 5.3232 13.7399C4.12521 13.1812 3.13205 12.2616 2.48292 11.1101C1.83379 9.95865 1.56123 8.6329 1.70342 7.31871C1.84562 6.00452 2.39546 4.76776 3.27587 3.78177C4.15628 2.79577 5.32314 2.10996 6.61291 1.82045C7.90268 1.53094 9.2507 1.65225 10.4681 2.16737C11.6854 2.68249 12.7111 3.56561 13.4013 4.69294C13.9865 5.64865 14.3057 6.73928 14.3316 7.85252C14.3394 8.18472 14.0484 8.4345 13.7169 8.41069C13.3855 8.38688 13.1398 8.09824 13.1247 7.7663C13.0854 6.90433 12.829 6.06269 12.3751 5.32129C11.816 4.40814 10.9852 3.69282 9.99913 3.27557C9.01307 2.85833 7.92117 2.76007 6.87646 2.99457C5.83174 3.22907 4.88659 3.78458 4.17346 4.58324C3.46032 5.38189 3.01496 6.38367 2.89977 7.44816C2.78459 8.51266 3.00537 9.58651 3.53117 10.5192C4.05696 11.4519 4.86142 12.1968 5.83179 12.6493C6.61966 13.0167 7.48484 13.1765 8.34574 13.1184C8.67728 13.096 8.99178 13.3075 9.05282 13.6342Z" fill="#111111"/>
</svg>
