<svg width="480" height="480" viewBox="0 0 480 480" fill="none" xmlns="http://www.w3.org/2000/svg">
<path fill-rule="evenodd" clip-rule="evenodd" d="M220.313 55C129.013 55 55 129.013 55 220.313C55 311.612 129.013 385.625 220.313 385.625C259.478 385.625 295.462 372.005 323.788 349.244L395.272 420.728C402.301 427.757 413.698 427.757 420.728 420.728C427.757 413.698 427.757 402.301 420.728 395.272L349.244 323.788C372.005 295.462 385.625 259.478 385.625 220.313C385.625 129.013 311.612 55 220.313 55ZM91 220.313C91 148.895 148.895 91 220.313 91C291.73 91 349.625 148.895 349.625 220.313C349.625 291.73 291.73 349.625 220.313 349.625C148.895 349.625 91 291.73 91 220.313Z" fill="#111111"/>
</svg>
