<svg width="480" height="480" viewBox="0 0 480 480" fill="none" xmlns="http://www.w3.org/2000/svg">
<path d="M199.988 245.615C207.941 245.615 214.389 252.063 214.389 260.016V270.351C214.571 306.443 243.884 335.645 280.02 335.646C287.972 335.646 294.42 342.092 294.42 350.045C294.42 357.998 287.972 364.445 280.02 364.445C243.885 364.445 214.572 393.647 214.389 429.738V440.091C214.388 448.043 207.941 454.49 199.988 454.49C192.036 454.49 185.589 448.043 185.589 440.091V430.264C185.588 430.202 185.587 430.14 185.587 430.078C185.587 394.113 156.659 364.905 120.802 364.45L119.953 364.445L119.581 364.44C111.8 364.243 105.553 357.873 105.553 350.045C105.553 342.092 112 335.646 119.953 335.646L120.802 335.64C156.659 335.185 185.587 305.977 185.587 270.012C185.587 269.949 185.588 269.887 185.589 269.825V260.016C185.589 252.063 192.035 245.615 199.988 245.615ZM199.986 320.155C192.406 332.229 182.17 342.465 170.097 350.045C182.17 357.625 192.406 367.861 199.986 379.934C207.566 367.861 217.802 357.625 229.875 350.045C217.802 342.465 207.566 332.228 199.986 320.155ZM325.646 320.032V300.299C325.644 300.21 325.642 300.121 325.642 300.032C325.641 253.103 287.895 214.99 241.106 214.397L240 214.391L239.628 214.386C231.847 214.188 225.6 207.82 225.6 199.991C225.6 192.038 232.047 185.591 240 185.591L241.106 185.584C287.895 184.992 325.642 146.878 325.642 99.9492C325.642 99.8497 325.643 99.7504 325.646 99.6514V79.9336C325.646 71.9808 332.092 65.5333 340.045 65.5332C347.998 65.5332 354.445 71.9807 354.445 79.9336V99.9424C354.445 100.011 354.443 100.079 354.442 100.146C354.549 147.354 392.85 185.591 440.083 185.591C448.036 185.591 454.483 192.038 454.483 199.991C454.483 207.944 448.036 214.391 440.083 214.391C392.854 214.391 354.555 252.621 354.442 299.823C354.443 299.89 354.445 299.957 354.445 300.023V320.032C354.445 327.985 347.998 334.432 340.045 334.432C332.092 334.432 325.646 327.985 325.646 320.032ZM105.556 240.005V220.182L105.554 219.996L105.548 219.148C105.097 183.573 76.3435 154.819 40.7686 154.368L39.9199 154.363L39.5479 154.358C31.7669 154.161 25.5195 147.791 25.5195 139.963C25.5196 132.01 31.9671 125.563 39.9199 125.563L40.7686 125.558C76.6257 125.103 105.554 95.8947 105.554 59.9297C105.554 59.8674 105.555 59.8052 105.556 59.7432V39.9141C105.556 31.9612 112.002 25.5138 119.955 25.5137C127.908 25.5137 134.355 31.9612 134.355 39.9141V59.9229C134.355 59.9577 134.354 59.9925 134.354 60.0273C134.406 96.2307 163.771 125.563 199.986 125.563C207.939 125.563 214.387 132.01 214.387 139.963C214.387 147.916 207.939 154.363 199.986 154.363C163.773 154.363 134.41 183.692 134.354 219.893C134.354 219.927 134.355 219.962 134.355 219.996V240.005C134.355 247.958 127.908 254.404 119.955 254.404C112.002 254.404 105.556 247.957 105.556 240.005ZM340.041 155.564C329.665 174.189 314.24 189.614 295.615 199.99C314.24 210.366 329.665 225.792 340.041 244.417C350.417 225.792 365.843 210.366 384.468 199.99C365.843 189.614 350.417 174.189 340.041 155.564ZM119.953 110.073C112.373 122.147 102.137 132.383 90.0635 139.963C102.137 147.543 112.373 157.779 119.953 169.852C127.533 157.779 137.769 147.543 149.842 139.963C137.769 132.383 127.533 122.146 119.953 110.073Z" fill="#111111"/>
</svg>
